<?xml version="1.0" encoding="UTF-8" standalone="no"?>
<!-- Created with Inkscape (http://www.inkscape.org/) -->

<svg
   xmlns:dc="http://purl.org/dc/elements/1.1/"
   xmlns:cc="http://creativecommons.org/ns#"
   xmlns:rdf="http://www.w3.org/1999/02/22-rdf-syntax-ns#"
   xmlns:svg="http://www.w3.org/2000/svg"
   xmlns="http://www.w3.org/2000/svg"
   xmlns:sodipodi="http://sodipodi.sourceforge.net/DTD/sodipodi-0.dtd"
   xmlns:inkscape="http://www.inkscape.org/namespaces/inkscape"
   width="120"
   height="40"
   viewBox="0 0 31.749999 10.583334"
   version="1.1"
   id="svg8"
   inkscape:version="0.92.4 (5da689c313, 2019-01-14)"
   sodipodi:docname="icons.svg">
  <defs
     id="defs2" />
  <sodipodi:namedview
     id="base"
     pagecolor="#ffffff"
     bordercolor="#666666"
     borderopacity="1.0"
     inkscape:pageopacity="0.0"
     inkscape:pageshadow="2"
     inkscape:zoom="2.8"
     inkscape:cx="45.607658"
     inkscape:cy="23.641523"
     inkscape:document-units="mm"
     inkscape:current-layer="layer1"
     showgrid="true"
     units="px"
     showguides="true"
     inkscape:guide-bbox="true"
     inkscape:window-width="1920"
     inkscape:window-height="1017"
     inkscape:window-x="-8"
     inkscape:window-y="-8"
     inkscape:window-maximized="1">
    <sodipodi:guide
       position="10.583333,5.2916667"
       orientation="1,0"
       id="guide821"
       inkscape:locked="false" />
    <inkscape:grid
       type="xygrid"
       id="grid823" />
    <sodipodi:guide
       position="21.166666,9.2604172"
       orientation="1,0"
       id="guide4531"
       inkscape:locked="false" />
    <sodipodi:guide
       position="15.874999,9.2604172"
       orientation="0,1"
       id="guide4539"
       inkscape:locked="false" />
    <sodipodi:guide
       position="25.135416,1.3229168"
       orientation="0,1"
       id="guide4541"
       inkscape:locked="false" />
  </sodipodi:namedview>
  <metadata
     id="metadata5">
    <rdf:RDF>
      <cc:Work
         rdf:about="">
        <dc:format>image/svg+xml</dc:format>
        <dc:type
           rdf:resource="http://purl.org/dc/dcmitype/StillImage" />
        <dc:title></dc:title>
      </cc:Work>
    </rdf:RDF>
  </metadata>
  <g
     inkscape:label="Livello 1"
     inkscape:groupmode="layer"
     id="layer1"
     transform="translate(0,-286.41665)">
    <path
       inkscape:connector-curvature="0"
       style="fill:#666666;stroke-width:0.26458332"
       d="m 3.9959903,295.35114 c -0.037152,0.0148 -0.079313,0.01 -0.1116542,-0.014 -0.032819,-0.0226 -0.052414,-0.0599 -0.052388,-0.0997 v -0.25268 c 0,-0.0738 0.029104,-0.13785 0.085196,-0.18494 l 0.7662332,-0.65723 v -1.82509 l -2.7680708,0.72548 c -0.036377,0.0102 -0.07544,0.002 -0.104775,-0.0217 -0.030658,-0.0224 -0.048832,-0.058 -0.048948,-0.096 v -0.23415 c -8.371e-4,-0.0814 0.03947,-0.15763 0.1071567,-0.20278 l 2.8125207,-1.8751 v -1.94734 c 3.2e-6,-0.33654 0.2730581,-0.60924 0.6096,-0.6088 0.3365672,-2.9e-4 0.6096877,0.27223 0.6101292,0.6088 v 1.94734 l 2.8125209,1.8751 c 0.0687,0.0443 0.1096287,0.12094 0.1082146,0.20267 v 0.23415 c 5.119e-4,0.0383 -0.018154,0.0743 -0.049742,0.096 -0.029195,0.0241 -0.06841,0.0322 -0.104775,0.0217 l -2.7686001,-0.72548 v 1.82509 l 0.7662335,0.65723 c 0.055562,0.0482 0.084931,0.11112 0.084931,0.18494 v 0.25268 c -3.94e-5,0.0846 -0.084456,0.14327 -0.1637772,0.11377 l -1.2956645,-0.47969 z"
       id="path266"
       sodipodi:nodetypes="cccscccccccccccccccccccccscccc" />
    <path
       inkscape:connector-curvature="0"
       style="fill:#666666;stroke-width:0.26858529"
       d="m 14.467613,293.73494 h 2.814505 a 0.90137237,0.90137237 0 0 0 0.900836,-0.90057 v -3.15293 c 0,-0.74559 -1.033517,-1.35098 -2.307954,-1.35098 -1.274706,0 -2.309834,0.60539 -2.309834,1.35098 v 3.15293 a 0.90459539,0.90459539 0 0 0 0.902447,0.90057 z m 2.814774,-0.84014 a 0.3386861,0.3386861 0 0 1 -0.33788,-0.33735 0.3385518,0.3385518 0 1 1 0.677103,0 0.33976044,0.33976044 0 0 1 -0.339223,0.33735 z m -1.238447,-3.03985 h 1.349641 c 0.125698,0 0.226686,0.10121 0.226686,0.22508 v 0.90083 c 0,0.12435 -0.100985,0.22561 -0.226686,0.22561 H 16.04394 Z m -1.913939,0.22454 a 0.22561168,0.22561168 0 0 1 0.225075,-0.22507 h 1.350984 v 1.35151 h -1.350984 a 0.22588026,0.22588026 0 0 1 -0.225075,-0.22561 z m 0.337344,2.13955 a 0.33788034,0.33788034 0 1 1 0,0.67576 0.33788034,0.33788034 0 0 1 0,-0.67576 z m 3.124721,1.85458 h -0.76144 l 0.308873,0.33708 h -2.528998 l 0.308604,-0.33708 h -0.761171 l -0.928767,1.01256 h 0.763587 l 0.308604,-0.33761 h 3.147014 l 0.308874,0.33761 h 0.763587 z"
       id="path284" />
    <g
       transform="matrix(0.26458333,0,0,0.26458333,-0.07646504,236.64035)"
       style="fill:#666666"
       id="g274">
      <path
         inkscape:connector-curvature="0"
         d="m 108.8,221.518 a 6.181,6.181 0 0 0 -2.184,-1.584 c -1.319,-0.57 -2.682,-0.553 -4.021,-0.17 -1.051,0.297 -2.085,0.657 -3.121,1.01 -2.237,0.771 -4.432,0.658 -6.59,-0.297 -0.366,-0.162 -0.732,-0.324 -1.097,-0.488 -0.021,0.021 -0.023,0.037 -0.035,0.064 0.417,0.27 0.824,0.563 1.255,0.809 2.144,1.218 4.395,1.353 6.716,0.604 1.049,-0.335 2.087,-0.704 3.134,-1.055 1.748,-0.569 3.414,-0.36 5.001,0.551 0.16,0.093 0.323,0.185 0.481,0.272 0.156,0.086 0.307,0.186 0.461,0.284 z"
         id="path268"
         style="fill:#666666" />
      <path
         inkscape:connector-curvature="0"
         d="m 102.444,218.827 a 7.45,7.45 0 0 1 2.019,-0.295 c 0.829,0 1.63,0.165 2.383,0.489 0.387,0.168 0.753,0.371 1.101,0.604 0.862,-2.171 1.646,-7.837 2.502,-9.999 -3.271,-0.996 -6.348,-1.938 -9.542,-2.905 v 12.584 a 38.33,38.33 0 0 1 1.537,-0.478 z m -9.335,0.741 c 1.131,0.5 2.284,0.754 3.437,0.754 0.897,0 1.835,-0.16 2.76,-0.475 l 0.354,-0.123 V 206.72 c -3.188,0.975 -6.271,1.903 -9.545,2.899 0.814,2.06 1.563,7.621 2.368,9.655 z m 6.131,-16.785 c 0.333,-0.107 0.729,-0.268 1.037,-0.204 0.313,-0.063 0.704,0.097 1.037,0.204 1.771,0.566 3.521,1.138 5.313,1.717 v -5.014 h -12.69 v 5.014 c 1.781,-0.579 3.541,-1.148 5.303,-1.717 z"
         id="path270-4"
         style="fill:#666666" />
      <path
         inkscape:connector-curvature="0"
         d="m 101.313,203.521 c -0.333,-0.105 -0.728,-0.271 -1.037,-0.203 -0.309,-0.063 -0.704,0.098 -1.037,0.203 -3.394,1.094 -6.773,2.199 -10.322,3.354 0.263,0.632 0.479,1.168 0.771,1.855 3.155,-0.949 6.188,-1.918 9.253,-2.758 a 5.06,5.06 0 0 1 1.345,-0.16 5.1,5.1 0 0 1 1.351,0.16 c 3.063,0.84 6.099,1.809 9.253,2.758 l 0.771,-1.855 c -3.566,-1.152 -6.955,-2.26 -10.348,-3.354 z m -4.232,-5.957 h 6.39 v 1.229 h -6.39 z m 2.267,-3.23 h 1.856 v 2.516 h -1.856 z"
         id="path272"
         style="fill:#666666" />
    </g>
  </g>
</svg>
